<svg width="1289" height="319" viewBox="0 0 1289 319" fill="none" xmlns="http://www.w3.org/2000/svg">
<g clip-path="url(#clip0_10_9)">
<path d="M345.103 196.2L355.343 211.88C344.889 248.573 323.236 266.92 290.383 266.92C282.916 266.92 276.409 265.533 270.863 262.76C265.529 259.987 261.476 256.68 258.703 252.84C255.929 249 253.689 244.093 251.983 238.12C249.636 229.16 248.356 217.32 248.143 202.6C248.143 187.88 246.329 177.747 242.703 172.2C239.289 166.653 232.676 163.56 222.863 162.92L226.383 135.72C226.809 135.72 227.129 135.72 227.343 135.72C239.716 135.72 249.956 132.2 258.063 125.16C266.809 117.267 271.183 107.133 271.183 94.76C271.183 82.3867 265.316 71.9333 253.583 63.4C242.063 54.8667 227.129 50.6 208.783 50.6C185.103 50.6 166.863 56.4667 154.063 68.2C147.236 74.6 143.823 82.28 143.823 91.24C143.823 102.547 152.463 109.373 169.743 111.72L165.263 135.72C152.249 135.08 140.729 130.707 130.703 122.6C120.676 114.493 115.663 104.04 115.663 91.24C115.663 68.84 125.049 51.6667 143.823 39.72C162.596 27.56 186.383 21.48 215.183 21.48C233.743 21.48 250.063 23.72 264.143 28.2C288.249 36.3067 304.249 50.3867 312.143 70.44C314.703 77.48 315.983 83.24 315.983 87.72C315.983 91.9867 315.983 94.8667 315.983 96.36C315.129 108.093 310.756 119.613 302.863 130.92C295.183 142.227 283.556 150.013 267.983 154.28C277.369 156.2 283.769 160.253 287.183 166.44C290.596 172.627 292.409 182.013 292.623 194.6C292.836 216.147 293.796 229.267 295.503 233.96C297.423 238.44 301.263 240.68 307.023 240.68C322.596 240.68 335.289 225.853 345.103 196.2ZM148.943 266.92C137.636 266.92 128.569 263.507 121.743 256.68C114.916 249.853 111.503 241.427 111.503 231.4C111.503 205.373 130.596 183.613 168.783 166.12C176.463 106.387 180.409 75.7733 180.623 74.28C189.583 68.52 199.716 65.64 211.023 65.64C215.716 65.64 221.049 66.28 227.023 67.56L206.863 204.2C200.463 246.013 181.156 266.92 148.943 266.92ZM135.183 227.56C135.183 234.387 138.809 237.8 146.062 237.8C154.596 237.8 160.036 230.12 162.383 214.76L165.263 193C145.209 204.733 135.183 216.253 135.183 227.56ZM390.205 193.32C403.432 190.547 413.245 185.213 419.645 177.32C426.258 169.427 429.565 161.853 429.565 154.6C429.565 147.133 427.538 142.12 423.485 139.56C419.645 136.787 415.378 135.4 410.685 135.4C400.658 135.4 391.805 141.053 384.125 152.36C376.658 163.453 372.925 176.787 372.925 192.36C372.925 207.72 376.552 219.24 383.805 226.92C391.272 234.387 400.445 238.12 411.325 238.12C427.325 238.12 442.685 232.573 457.405 221.48C472.125 210.387 484.072 195.88 493.245 177.96C497.938 182.44 502.205 187.987 506.045 194.6C499.005 210.6 486.525 226.28 468.605 241.64C459.645 249.107 448.978 255.187 436.605 259.88C424.445 264.573 411.858 266.92 398.845 266.92C377.512 266.92 360.658 260.413 348.285 247.4C335.058 233.32 328.445 215.293 328.445 193.32C328.445 171.347 336.658 152.147 353.085 135.72C369.725 119.293 389.565 111.08 412.605 111.08C429.032 111.08 442.365 114.707 452.605 121.96C462.845 129 468.072 138.6 468.285 150.76C468.285 167.187 461.672 180.52 448.445 190.76C435.432 201 417.512 208.147 394.685 212.2L390.205 193.32ZM570.948 229.16L578.628 157.8C578.628 152.04 577.134 147.24 574.148 143.4C571.161 139.56 566.148 137.64 559.108 137.64C552.281 137.64 546.414 140.733 541.508 146.92C536.814 152.893 533.828 160.467 532.548 169.64C524.868 228.093 520.814 259.88 520.388 265H477.188L494.788 114.28C503.748 111.933 510.574 110.76 515.268 110.76C529.561 110.76 537.028 115.987 537.668 126.44C548.121 116.2 560.601 111.08 575.108 111.08C589.828 111.08 601.348 114.707 609.668 121.96C617.988 129.213 622.148 138.387 622.148 149.48C622.148 152.467 621.508 158.12 620.228 166.44C615.321 198.867 612.868 217.747 612.868 223.08C612.868 232.893 616.174 237.8 622.788 237.8C637.294 237.8 648.281 222.653 655.748 192.36C663.001 200.04 667.374 206.12 668.868 210.6C657.561 248.147 637.934 266.92 609.988 266.92C596.761 266.92 586.948 262.867 580.548 254.76C574.148 246.653 570.948 238.12 570.948 229.16ZM718.005 42.28C718.005 43.56 715.125 66.4933 709.365 111.08H756.405V135.72H706.165L705.205 143.72C730.165 164.627 742.645 187.453 742.645 212.2C742.645 231.613 737.632 245.587 727.605 254.12C717.792 262.653 705.952 266.92 692.085 266.92C678.218 266.92 668.085 263.293 661.685 256.04C655.285 248.573 652.085 239.613 652.085 229.16C652.085 226.813 652.298 224.253 652.725 221.48L662.645 136.36L661.365 135.72H635.445C635.232 133.587 635.125 130.173 635.125 125.48C635.125 120.573 636.085 115.773 638.005 111.08H665.525L675.765 24.04C680.245 22.3333 686.218 21.48 693.685 21.48C709.898 21.48 718.005 28.4133 718.005 42.28ZM721.205 211.88C721.205 197.16 714.805 182.653 702.005 168.36C698.165 200.147 696.245 218.493 696.245 223.4C696.245 233 699.338 237.8 705.525 237.8C710.005 237.8 713.738 235.773 716.725 231.72C719.712 227.453 721.205 220.84 721.205 211.88ZM815.205 193.32C828.432 190.547 838.245 185.213 844.645 177.32C851.258 169.427 854.565 161.853 854.565 154.6C854.565 147.133 852.538 142.12 848.485 139.56C844.645 136.787 840.378 135.4 835.685 135.4C825.658 135.4 816.805 141.053 809.125 152.36C801.658 163.453 797.925 176.787 797.925 192.36C797.925 207.72 801.552 219.24 808.805 226.92C816.272 234.387 825.445 238.12 836.325 238.12C852.325 238.12 867.685 232.573 882.405 221.48C897.125 210.387 909.072 195.88 918.245 177.96C922.938 182.44 927.205 187.987 931.045 194.6C924.005 210.6 911.525 226.28 893.605 241.64C884.645 249.107 873.978 255.187 861.605 259.88C849.445 264.573 836.858 266.92 823.845 266.92C802.512 266.92 785.658 260.413 773.285 247.4C760.058 233.32 753.445 215.293 753.445 193.32C753.445 171.347 761.658 152.147 778.085 135.72C794.725 119.293 814.565 111.08 837.605 111.08C854.032 111.08 867.365 114.707 877.605 121.96C887.845 129 893.072 138.6 893.285 150.76C893.285 167.187 886.672 180.52 873.445 190.76C860.432 201 842.512 208.147 819.685 212.2L815.205 193.32ZM964.268 193.32C977.494 190.547 987.308 185.213 993.708 177.32C1000.32 169.427 1003.63 161.853 1003.63 154.6C1003.63 147.133 1001.6 142.12 997.548 139.56C993.708 136.787 989.441 135.4 984.748 135.4C974.721 135.4 965.868 141.053 958.188 152.36C950.721 163.453 946.988 176.787 946.988 192.36C946.988 207.72 950.614 219.24 957.868 226.92C965.334 234.387 974.508 238.12 985.388 238.12C1001.39 238.12 1016.75 232.573 1031.47 221.48C1046.19 210.387 1058.13 195.88 1067.31 177.96C1072 182.44 1076.27 187.987 1080.11 194.6C1073.07 210.6 1060.59 226.28 1042.67 241.64C1033.71 249.107 1023.04 255.187 1010.67 259.88C998.508 264.573 985.921 266.92 972.908 266.92C951.574 266.92 934.721 260.413 922.348 247.4C909.121 233.32 902.508 215.293 902.508 193.32C902.508 171.347 910.721 152.147 927.148 135.72C943.788 119.293 963.628 111.08 986.668 111.08C1003.09 111.08 1016.43 114.707 1026.67 121.96C1036.91 129 1042.13 138.6 1042.35 150.76C1042.35 167.187 1035.73 180.52 1022.51 190.76C1009.49 201 991.574 208.147 968.748 212.2L964.268 193.32ZM1142.77 267.88L1053.81 265.96C1051.04 265.96 1049.65 262.227 1049.65 254.76C1049.65 247.08 1051.25 241.107 1054.45 236.84C1057.65 228.307 1066.5 215.827 1081.01 199.4C1085.7 194.067 1094.45 184.467 1107.25 170.6C1120.05 156.733 1128.48 147.24 1132.53 142.12L1115.57 141.16C1112.37 148.84 1107.68 155.133 1101.49 160.04C1095.52 164.733 1088.8 167.08 1081.33 167.08C1072.8 167.08 1065.86 164.627 1060.53 159.72C1055.2 154.6 1052.53 147.56 1052.53 138.6C1052.53 129.64 1055.62 122.493 1061.81 117.16C1068 111.827 1076.53 109.16 1087.41 109.16L1176.37 111.08C1179.14 111.08 1180.53 114.707 1180.53 121.96C1180.53 129.427 1179.14 135.187 1176.37 139.24C1173.81 143.933 1170.08 148.947 1165.17 154.28C1160.48 159.4 1153.54 166.333 1144.37 175.08C1135.2 183.613 1128.8 189.693 1125.17 193.32C1110.88 207.613 1100.21 221.373 1093.17 234.6L1114.61 235.88C1117.81 228.2 1122.4 222.013 1128.37 217.32C1134.56 212.413 1141.38 209.96 1148.85 209.96C1157.38 209.96 1164.32 212.52 1169.65 217.64C1174.98 222.547 1177.65 229.48 1177.65 238.44C1177.65 247.4 1174.56 254.547 1168.37 259.88C1162.18 265.213 1153.65 267.88 1142.77 267.88ZM1084.85 138.92C1077.38 138.92 1073.65 141.373 1073.65 146.28C1073.65 151.187 1076.42 153.64 1081.97 153.64C1090.29 153.64 1096.9 149.16 1101.81 140.2L1088.69 139.24C1087.41 139.027 1086.13 138.92 1084.85 138.92ZM1145.33 238.12C1152.8 238.12 1156.53 235.667 1156.53 230.76C1156.53 225.853 1153.76 223.4 1148.21 223.4C1139.89 223.4 1133.28 227.88 1128.37 236.84L1141.49 237.8C1142.77 238.013 1144.05 238.12 1145.33 238.12Z" fill="#E13737"/>
</g>
<defs>
<clipPath id="clip0_10_9">
<rect width="1289" height="319" fill="white"/>
</clipPath>
</defs>
</svg>
